<?xml version="1.0" encoding="utf-8"?>
<!DOCTYPE svg PUBLIC "-//W3C//DTD SVG 1.1//EN" "http://www.w3.org/Graphics/SVG/1.1/DTD/svg11.dtd">
<svg version="1.1" id="LinkedIn" xmlns="http://www.w3.org/2000/svg" xmlns:xlink="http://www.w3.org/1999/xlink" x="0" y="0" width="72px" height="72px" viewBox="0 0 72 72" enable-background="new 0 0 72 72" xml:space="preserve">
<path fill="none" d="M44.357,48.025V37.482c0,0-0.311-2.822-3.04-2.822c-2.729,0-3.227,2.682-3.227,2.682v10.683h-5.623l0.092-17.417h5.438
	l-0.044,2.189c0,0,1.133-2.861,5.406-2.861c4.269,0,6.204,2.453,6.564,7.043c0,4.591,0,11.046,0,11.046H44.357z M25.575,28.134
	c-1.932,0-3.5-1.381-3.5-3.088c0-1.708,1.568-3.093,3.5-3.093c1.931,0,3.499,1.385,3.499,3.093
	C29.074,26.752,27.506,28.134,25.575,28.134z M29.043,48.048h-6.911V30.653l6.911-0.044V48.048z"/>
</svg>
