<?xml version="1.0" encoding="utf-8"?>
<!DOCTYPE svg PUBLIC "-//W3C//DTD SVG 1.1//EN" "http://www.w3.org/Graphics/SVG/1.1/DTD/svg11.dtd">
<svg version="1.1" id="Logo" xmlns="http://www.w3.org/2000/svg" xmlns:xlink="http://www.w3.org/1999/xlink" x="0" y="0" width="260px" height="118px" viewBox="0 0 260 118" enable-background="new 0 0 260 118" xml:space="preserve">
<path fill="none" d="M8.887,62.017v36.362h248.315V62.017H8.887z M35.15,87.389l-1.69-3.523h-7.984l-1.688,3.523h-2.216
	l6.932-14.599h1.93l6.911,14.599H35.15z M62.938,82.691c0,1.68-0.416,2.814-1.337,3.685c-1.032,0.972-2.699,1.499-4.717,1.499
	c-3.751,0-6.01-1.843-6.01-4.881V72.79h2.171v10.023c0,2.086,1.405,3.219,3.97,3.219c1.141,0,2.304-0.365,2.918-0.952
	c0.592-0.546,0.834-1.357,0.834-2.693V72.79h2.17V82.691z M83.51,87.895c-2.216,0-4.016-0.667-5.178-1.923
	c-0.481-0.527-0.724-0.932-1.075-1.943l1.821-1.398c0.285,1.215,0.68,1.883,1.492,2.49c0.833,0.648,1.974,0.993,3.333,0.993
	c1.976,0,3.533-1.215,3.533-2.714c0-1.417-1.031-2.146-4.036-2.794c-2.457-0.527-2.918-0.709-4.257-1.721
	c-0.832-0.811-1.206-1.601-1.206-2.572c0-2.328,2.348-3.908,5.792-3.908c4.146,0,5.177,2.287,5.572,3.098l-1.624,1.397
	c-0.306-0.872-0.943-2.674-4.125-2.674c-2.083,0-3.377,0.791-3.377,2.086c0,1.377,2.303,1.884,3.816,2.227
	c2.413,0.506,5.769,1.357,5.769,4.677C89.761,86.032,87.282,87.895,83.51,87.895z M116.431,74.55h-5.353v12.838h-2.149V74.55
	h-5.353V72.79h12.854V74.55z M140.731,87.389l-3.816-6.561h-3.948v6.561h-2.172V72.79h6.712c2.873,0,4.937,1.682,4.937,3.989
	c0,2.106-1.14,3.179-3.335,3.746l3.948,6.864H140.731z M170.385,87.389l-1.688-3.523h-7.986l-1.688,3.523h-2.215l6.931-14.599
	h1.933l6.908,14.599H170.385z M196.726,87.389h-9.74V72.79h2.17v12.858h7.569V87.389z M213.611,87.389h-2.171V72.79h2.171V87.389z
	 M242.322,87.389l-1.69-3.523h-7.984l-1.689,3.523h-2.214l6.931-14.599h1.931l6.911,14.599H242.322z"/>
<polygon fill="none" points="233.482,82.063 239.778,82.063 236.643,75.402 	"/>
<path fill="none" d="M140.162,76.779c0-1.519-1.076-2.288-3.225-2.288h-3.972v4.617h4.146
	C139.086,79.107,140.162,78.297,140.162,76.779z"/>
<polygon fill="none" points="26.31,82.063 32.605,82.063 29.469,75.402"/>
<polygon fill="none" points="161.544,82.063 167.842,82.063 164.704,75.402"/>
<path fill="none" d="M12.557,109.967c-0.696-0.169-1.757-0.417-1.757-1.097c0-0.639,0.596-1.028,1.555-1.028
	c1.465,0,1.756,0.889,1.899,1.317l0.747-0.688c-0.182-0.399-0.657-1.526-2.564-1.526c-1.586,0-2.667,0.777-2.667,1.925
	c0,0.479,0.171,0.867,0.556,1.267c0.616,0.498,0.828,0.588,1.958,0.846c1.383,0.32,1.859,0.679,1.859,1.376
	c0,0.739-0.717,1.337-1.627,1.337c-0.625,0-1.15-0.17-1.535-0.488c-0.374-0.298-0.555-0.629-0.686-1.226l-0.839,0.687
	c0.162,0.499,0.273,0.699,0.495,0.958c0.535,0.619,1.363,0.947,2.383,0.947c1.737,0,2.878-0.917,2.878-2.302
	C15.213,110.635,13.668,110.216,12.557,109.967z"/>
<polygon fill="none" points="25.086,112.979 23.491,107.135 22.46,107.135 20.834,112.97 19.138,107.135 18.158,107.135 
	20.269,114.325 21.329,114.325 22.976,108.411 24.602,114.325 25.671,114.325 27.803,107.135 26.833,107.135 	"/>
<rect x="31.219" y="107.135" fill="none" width="1" height="7.189"/>
<polygon fill="none" points="39.378,112.989 37.56,107.135 36.003,107.135 36.003,114.325 36.903,114.325 36.903,107.933 
	38.882,114.325 39.863,114.325 41.832,107.933 41.832,114.325 42.73,114.325 42.73,107.135 41.186,107.135 	"/>
<polygon fill="none" points="49.702,112.989 47.885,107.135 46.329,107.135 46.329,114.325 47.229,114.325 47.229,107.933 
	49.208,114.325 50.188,114.325 52.157,107.933 52.157,114.325 53.056,114.325 53.056,107.135 51.511,107.135 	"/>
<rect x="56.838" y="107.135" fill="none" width="1" height="7.189"/>
<polygon fill="none" points="66.227,112.74 63.016,107.135 61.672,107.135 61.672,114.325 62.662,114.325 62.662,108.461 
	66.036,114.325 67.228,114.325 67.228,107.135 66.227,107.135 	"/>
<path fill="none" d="M73.362,111.652H76.2v1.167c-0.314,0.359-0.819,0.877-1.859,0.877c-1.564,0-2.495-1.027-2.495-2.772
	c0-1.924,0.939-3.071,2.505-3.071c0.818,0,1.516,0.458,1.979,1.187l0.586-0.798c-0.495-0.688-1.394-1.286-2.515-1.286
	c-2.242,0-3.615,1.546-3.615,4.027c0,2.176,1.392,3.591,3.534,3.591c0.788,0,1.586-0.269,2.202-0.737
	c0.272-0.201,0.395-0.34,0.677-0.709v-2.362h-3.837V111.652z"/>
<path fill="none" d="M87.867,107.135h-2.989v7.189h0.999v-2.912h1.797c1.545,0,2.536-0.827,2.536-2.114
	C90.21,108.022,89.251,107.135,87.867,107.135z M86.929,110.556h-1.061v-2.553h1.625c1.071,0,1.597,0.419,1.597,1.296
	C89.089,110.527,87.967,110.556,86.929,110.556z"/>
<path fill="none" d="M96.639,106.965c-2.06,0-3.484,1.428-3.484,3.76c0,2.364,1.323,3.84,3.444,3.84
	c1.041,0,3.475-0.579,3.475-3.859C100.073,108.462,98.678,106.965,96.639,106.965z M96.608,113.696
	c-1.414,0-2.394-1.186-2.394-2.901c0-1.824,0.929-2.952,2.424-2.952c1.434,0,2.374,1.128,2.374,2.852
	C99.012,112.52,98.073,113.696,96.608,113.696z"/>
<path fill="none" d="M106.44,106.965c-2.06,0-3.484,1.428-3.484,3.76c0,2.364,1.322,3.84,3.443,3.84
	c1.041,0,3.476-0.579,3.476-3.859C109.874,108.462,108.479,106.965,106.44,106.965z M106.41,113.696
	c-1.415,0-2.394-1.186-2.394-2.901c0-1.824,0.929-2.952,2.424-2.952c1.434,0,2.374,1.128,2.374,2.852
	C108.813,112.52,107.874,113.696,106.41,113.696z"/>
<polygon fill="none" points="114.169,107.135 113.169,107.135 113.169,114.325 117.654,114.325 117.654,113.467 
	114.169,113.467 	"/>
<path fill="none" d="M129.939,113.627c-0.293,0-0.577-0.179-0.951-0.608c0.364-0.479,0.566-0.967,0.688-1.635l-0.636-0.4
	c-0.091,0.639-0.192,0.928-0.505,1.447c-0.292-0.429-0.616-0.947-1.182-1.994c0.354-0.209,0.485-0.319,0.687-0.548
	c0.283-0.338,0.435-0.709,0.435-1.087c0-0.768-0.515-1.346-1.192-1.346c-0.737,0-1.241,0.608-1.241,1.506
	c0,0.328,0.1,0.718,0.323,1.266c-0.636,0.299-1.869,0.877-1.869,2.183c0,1.127,0.939,2.055,2.09,2.055c0.142,0,1.051,0,1.859-0.797
	c0.514,0.589,0.857,0.777,1.363,0.777c0.111,0,0.263-0.019,0.495-0.069l-0.081-0.778
	C130.101,113.617,130.009,113.627,129.939,113.627z M127.282,108.163c0.283,0,0.496,0.289,0.496,0.677
	c0,0.429-0.192,0.718-0.687,1.037c-0.252-0.528-0.344-0.758-0.344-1.097C126.747,108.412,126.97,108.163,127.282,108.163z
	 M126.727,113.717c-0.777,0-1.423-0.599-1.423-1.316c0-0.809,0.706-1.198,1.343-1.546l0.272,0.499
	c0.435,0.786,0.605,1.066,1.091,1.764C127.545,113.548,127.182,113.717,126.727,113.717z"/>
<path fill="none" d="M139.972,109.967c-0.697-0.169-1.758-0.417-1.758-1.097c0-0.639,0.595-1.028,1.554-1.028
	c1.465,0,1.758,0.889,1.898,1.317l0.749-0.688c-0.182-0.399-0.656-1.526-2.564-1.526c-1.586,0-2.668,0.777-2.668,1.925
	c0,0.479,0.172,0.867,0.556,1.267c0.616,0.498,0.828,0.588,1.958,0.846c1.384,0.32,1.859,0.679,1.859,1.376
	c0,0.739-0.718,1.337-1.627,1.337c-0.626,0-1.15-0.17-1.535-0.488c-0.373-0.298-0.556-0.629-0.685-1.226l-0.839,0.687
	c0.162,0.499,0.272,0.699,0.495,0.958c0.535,0.619,1.364,0.947,2.383,0.947c1.737,0,2.879-0.917,2.879-2.302
	C142.628,110.635,141.081,110.216,139.972,109.967z"/>
<path fill="none" d="M149.014,107.135h-2.988v7.189h1v-2.912h1.797c1.545,0,2.534-0.827,2.534-2.114
	C151.357,108.022,150.399,107.135,149.014,107.135z M148.077,110.556h-1.063v-2.553h1.627c1.072,0,1.596,0.419,1.596,1.296
	C150.237,110.527,149.115,110.556,148.077,110.556z"/>
<path fill="none" d="M156.483,107.135l-3.191,7.189h1.02l0.779-1.734h3.677l0.777,1.734h1.01l-3.181-7.189H156.483z
	 M155.475,111.703l1.454-3.281l1.444,3.281H155.475z"/>
<path fill="none" d="M170.08,107.135l-3.191,7.189h1.02l0.777-1.734h3.676l0.777,1.734h1.012l-3.183-7.189H170.08z
	 M169.069,111.703l1.454-3.281l1.444,3.281H169.069z"/>
<path fill="none" d="M179.67,109.967c-0.699-0.169-1.758-0.417-1.758-1.097c0-0.639,0.594-1.028,1.555-1.028
	c1.464,0,1.758,0.889,1.898,1.317l0.749-0.688c-0.182-0.399-0.658-1.526-2.566-1.526c-1.585,0-2.666,0.777-2.666,1.925
	c0,0.479,0.172,0.867,0.554,1.267c0.618,0.498,0.828,0.588,1.961,0.846c1.383,0.32,1.858,0.679,1.858,1.376
	c0,0.739-0.718,1.337-1.626,1.337c-0.626,0-1.151-0.17-1.536-0.488c-0.372-0.298-0.554-0.629-0.685-1.226l-0.838,0.687
	c0.161,0.499,0.272,0.699,0.495,0.958c0.535,0.619,1.363,0.947,2.385,0.947c1.735,0,2.878-0.917,2.878-2.302
	C182.326,110.635,180.78,110.216,179.67,109.967z"/>
<path fill="none" d="M188.421,109.967c-0.698-0.169-1.758-0.417-1.758-1.097c0-0.639,0.595-1.028,1.555-1.028
	c1.464,0,1.757,0.889,1.898,1.317l0.749-0.688c-0.183-0.399-0.657-1.526-2.565-1.526c-1.585,0-2.667,0.777-2.667,1.925
	c0,0.479,0.172,0.867,0.556,1.267c0.616,0.498,0.828,0.588,1.959,0.846c1.382,0.32,1.858,0.679,1.858,1.376
	c0,0.739-0.718,1.337-1.626,1.337c-0.626,0-1.15-0.17-1.536-0.488c-0.373-0.298-0.556-0.629-0.685-1.226l-0.839,0.687
	c0.162,0.499,0.273,0.699,0.496,0.958c0.535,0.619,1.363,0.947,2.382,0.947c1.737,0,2.879-0.917,2.879-2.302
	C191.077,110.635,189.53,110.216,188.421,109.967z"/>
<path fill="none" d="M197.495,106.965c-2.06,0-3.484,1.428-3.484,3.76c0,2.364,1.323,3.84,3.443,3.84
	c1.041,0,3.474-0.579,3.474-3.859C200.928,108.462,199.534,106.965,197.495,106.965z M197.464,113.696
	c-1.413,0-2.394-1.186-2.394-2.901c0-1.824,0.93-2.952,2.425-2.952c1.434,0,2.374,1.128,2.374,2.852
	C199.869,112.52,198.929,113.696,197.464,113.696z"/>
<path fill="none" d="M208.881,113.068c-0.425,0.409-0.969,0.628-1.554,0.628c-0.557,0-2.343-0.229-2.343-2.931
	c0-1.736,0.969-2.901,2.402-2.901c1.354,0,1.728,1.025,1.919,1.544l0.768-0.649c-0.09-0.339-0.695-1.794-2.746-1.794
	c-2.031,0-3.414,1.605-3.414,3.98c0,0.617,0.23,3.628,3.433,3.628c1.828,0,2.464-1.077,2.758-1.576l-0.688-0.708
	C209.214,112.7,209.104,112.859,208.881,113.068z"/>
<rect x="213.613" y="107.135" fill="none" width="1" height="7.189"/>
<path fill="none" d="M221.327,107.135l-3.192,7.189h1.021l0.777-1.734h3.675l0.778,1.734h1.011l-3.182-7.189H221.327z
	 M220.315,111.703l1.455-3.281l1.443,3.281H220.315z"/>
<polygon fill="none" points="227.128,108.002 229.592,108.002 229.592,114.325 230.582,114.325 230.582,108.002 
	233.046,108.002 233.046,107.135 227.128,107.135 	"/>
<rect x="236.445" y="107.135" fill="none" width="1" height="7.189"/>
<path fill="none" d="M244.35,106.965c-2.061,0-3.485,1.428-3.485,3.76c0,2.364,1.323,3.84,3.444,3.84
	c1.041,0,3.474-0.579,3.474-3.859C247.784,108.462,246.389,106.965,244.35,106.965z M244.318,113.696
	c-1.413,0-2.393-1.186-2.393-2.901c0-1.824,0.93-2.952,2.424-2.952c1.434,0,2.373,1.128,2.373,2.852
	C246.723,112.52,245.784,113.696,244.318,113.696z"/>
<polygon fill="none" points="255.635,112.74 252.423,107.135 251.08,107.135 251.08,114.325 252.07,114.325 252.07,108.461 
	255.444,114.325 256.635,114.325 256.635,107.135 255.635,107.135 	"/>
<path fill="none" d="M154.387,42.123h6.238c5.36,0,8.795-2.873,8.795-7.334c0-4.429-3.328-7.508-8.129-7.508h-10.37v24.946
	h3.467V42.123z M154.356,30.29h5.638c3.714,0,5.537,1.453,5.537,4.498c0,4.256-3.889,4.359-7.499,4.359h-3.676V30.29z"/>
<path fill="none" d="M121.941,33.3c0,1.66,0.595,3.011,1.928,4.393c2.137,1.73,2.873,2.042,6.798,2.941
	c4.799,1.107,6.447,2.353,6.447,4.774c0,2.56-2.489,4.636-5.643,4.636c-2.17,0-3.994-0.587-5.326-1.694
	c-1.296-1.04-1.926-2.181-2.381-4.256l-2.909,2.388c0.562,1.729,0.947,2.422,1.717,3.321c1.857,2.145,4.729,3.288,8.27,3.288
	c6.027,0,9.986-3.183,9.986-7.992c0-5.675-5.362-7.127-9.216-7.993c-2.418-0.587-6.097-1.453-6.097-3.805
	c0-2.214,2.068-3.564,5.396-3.564c5.081,0,6.097,3.079,6.588,4.567l2.592-2.387c-0.633-1.385-2.277-5.292-8.9-5.292
	C125.692,26.624,121.941,29.32,121.941,33.3z"/>
<path fill="none" d="M179.934,46.207h12.751l2.699,6.02h3.505L187.852,27.28h-3.083l-11.073,24.946h3.541L179.934,46.207z
	 M186.31,31.743l5.01,11.384h-10.058L186.31,31.743z"/>
<path fill="none" d="M237.222,46.207h12.753l2.7,6.02h3.501L245.14,27.28h-3.084l-11.073,24.946h3.539L237.222,46.207z
	 M243.599,31.743l5.012,11.384h-10.058L243.599,31.743z"/>
<path fill="none" d="M216.163,50.044c-2.172,0-3.995-0.587-5.326-1.694c-1.297-1.04-1.929-2.181-2.382-4.256l-2.909,2.388
	c0.561,1.729,0.946,2.422,1.717,3.321c1.857,2.145,4.73,3.288,8.27,3.288c6.027,0,9.987-3.183,9.987-7.992
	c0-5.675-5.361-7.127-9.215-7.993c-2.419-0.587-6.097-1.453-6.097-3.805c0-2.214,2.067-3.564,5.396-3.564
	c5.08,0,6.097,3.079,6.587,4.567l2.592-2.387c-0.629-1.385-2.277-5.292-8.9-5.292c-5.5,0-9.25,2.696-9.25,6.676
	c0,1.66,0.595,3.011,1.927,4.393c2.138,1.73,2.874,2.042,6.799,2.941c4.801,1.107,6.447,2.353,6.447,4.774
	C221.804,47.968,219.318,50.044,216.163,50.044z"/>
<path fill="none" d="M29.007,29.44c7.396,0,13.386-5.916,13.386-13.216C42.393,8.918,36.403,3,29.007,3
	c-7.396,0-13.39,5.918-13.39,13.224C15.617,23.524,21.611,29.44,29.007,29.44z"/>
<path fill="none" d="M81.416,16.488c9.417-9.389,23.012-12.246,23.012-12.246S88.514,0.564,74.902,8.664
	c-12.848,7.648-25.962,31.894-49.371,31.6c-13.115-0.163-23.183-8.873-23.183-8.873s11.143,14.02,32.167,14.196
	C55.545,45.765,71.082,26.788,81.416,16.488z"/>
<path fill="none" d="M61.612,39.515c-10.492,6.271-20.773,9.413-29.746,9.3c-13.121-0.163-21.654-4.171-21.654-4.171
	s9.077,8.288,30.101,8.601c23.235,0.349,37.939-7.382,47.796-14.774c6.045-4.527,12.965-12.557,18.305-17.987
	c6.257-6.358,13.67-11.359,22.975-10.516c0,0-10.887-9.383-25.262-2.697C87.816,14.861,81.805,27.448,61.612,39.515z"/>
</svg>
