<?xml version="1.0" encoding="utf-8"?>
<!DOCTYPE svg PUBLIC "-//W3C//DTD SVG 1.1//EN" "http://www.w3.org/Graphics/SVG/1.1/DTD/svg11.dtd">
<svg version="1.1" id="Twitter" xmlns="http://www.w3.org/2000/svg" xmlns:xlink="http://www.w3.org/1999/xlink" x="0" y="0" width="72px" height="72px" viewBox="0 0 72 72" enable-background="new 0 0 72 72" xml:space="preserve">
<path fill="none" d="M51.5,28.218c-1.103,0.488-2.281,0.817-3.522,0.969c1.267-0.76,2.242-1.964,2.699-3.396
	c-1.186,0.703-2.497,1.216-3.897,1.489c-1.121-1.197-2.718-1.945-4.479-1.945c-3.39,0-6.133,2.75-6.133,6.14
	c0,0.481,0.051,0.95,0.159,1.4c-5.101-0.253-9.625-2.699-12.647-6.418c-0.526,0.906-0.83,1.964-0.83,3.086
	c0,2.129,1.083,4.011,2.731,5.113c-1.007-0.025-1.958-0.304-2.782-0.767c0,0.025,0,0.05,0,0.076c0,2.978,2.117,5.456,4.923,6.019
	c-0.513,0.14-1.058,0.216-1.616,0.216c-0.393,0-0.779-0.038-1.153-0.114c0.779,2.439,3.048,4.214,5.734,4.265
	c-2.097,1.647-4.746,2.629-7.622,2.629c-0.495,0-0.982-0.031-1.464-0.089c2.712,1.762,5.937,2.775,9.396,2.775
	c11.291,0,17.462-9.358,17.462-17.475c0-0.266-0.007-0.532-0.02-0.792C49.637,30.53,50.677,29.447,51.5,28.218z"/>
</svg>
