<?xml version="1.0" encoding="utf-8"?>
<!DOCTYPE svg PUBLIC "-//W3C//DTD SVG 1.1//EN" "http://www.w3.org/Graphics/SVG/1.1/DTD/svg11.dtd">
<svg version="1.1" id="YouTube" xmlns="http://www.w3.org/2000/svg" xmlns:xlink="http://www.w3.org/1999/xlink" x="0" y="0" width="72px" height="72px" viewBox="0 0 72 72" enable-background="new 0 0 72 72" xml:space="preserve">
<path fill="none" id="Path" d="M53.462,30.008c0,0-0.339-2.385-1.376-3.436c-1.316-1.379-2.792-1.385-3.469-1.466
	c-4.843-0.351-12.11-0.351-12.11-0.351h-0.015c0,0-7.266,0-12.11,0.351c-0.677,0.081-2.152,0.087-3.468,1.466
	c-1.038,1.051-1.376,3.436-1.376,3.436s-0.346,2.801-0.346,5.602v2.627c0,2.8,0.346,5.602,0.346,5.602s0.338,2.385,1.376,3.436
	c1.316,1.379,3.046,1.335,3.816,1.479C27.5,49.021,36.5,49.103,36.5,49.103s7.274-0.012,12.117-0.361
	c0.677-0.081,2.152-0.088,3.469-1.467c1.037-1.051,1.376-3.436,1.376-3.436s0.345-2.802,0.345-5.602V35.61
	C53.807,32.809,53.462,30.008,53.462,30.008z M32.926,41.418l-0.001-9.725l9.353,4.879L32.926,41.418z"/>
</svg>
